<?xml version="1.0" encoding="UTF-8"?>
<svg id="Layer_1" xmlns="http://www.w3.org/2000/svg" width="2.3777934in" height="3in" version="1.1" viewBox="0 0 171.201122 216">
  <!-- Generator: Adobe Illustrator 30.4.0, SVG Export Plug-In . SVG Version: 2.1.4 Build 226)  -->
  <defs>
    <style>
      .st0 {
        fill: #231f20;
      }
    </style>
  </defs>
  <path class="st0" d="M35.6025141,31.2224121h8.4228516c4.8955078,0,8.8544922,1.2236328,8.8544922,5.8310547,0,2.0161133-1.1513672,4.3198242-2.9511719,5.0395508v.144043c2.2314453.6479492,4.03125,2.3754883,4.03125,5.4711914,0,4.8232422-4.1757812,6.9111328-9.2148438,6.9111328h-9.1425781v-23.3969727ZM43.881811,40.3649902c2.015625,0,2.9511719-.9355469,2.9511719-2.3754883s-.9355469-2.015625-2.9511719-2.015625h-2.0878906v4.3911133h2.0878906ZM44.3134516,49.8679199c2.4472656,0,3.5996094-.8637695,3.5996094-2.5917969,0-1.7275391-1.1523438-2.3754883-3.5996094-2.3754883h-2.5195312v4.9672852h2.5195312Z"/>
  <path class="st0" d="M57.6347407,31.2224121h15.1181641v5.1831055h-8.9267578v3.671875h7.6308594v5.1831055h-7.6308594v4.175293h9.2861328v5.1835938h-15.4775391v-23.3969727Z"/>
  <path class="st0" d="M76.6425532,43.1008301c0-7.847168,5.3994141-12.3105469,11.3027344-12.3105469,3.0957031,0,5.6152344,1.3681641,7.2705078,3.0957031l-3.2392578,3.7436523c-1.1523438-1.0078125-2.3037109-1.5117188-3.8876953-1.5117188-2.7353516,0-5.1113281,2.5195312-5.1113281,6.7670898,0,4.3911133,2.015625,6.8388672,5.0390625,6.8388672,1.7998047,0,3.2402344-.7197266,4.2480469-1.7998047l3.2392578,3.671875c-2.0878906,2.3754883-4.7509766,3.4555664-7.703125,3.4555664-5.9746094,0-11.1582031-3.9594727-11.1582031-11.9506836Z"/>
  <path class="st0" d="M98.7460688,31.2224121h6.1914062v8.7109375h.1435547l5.9033203-8.7109375h6.7675781l-6.9833984,9.5029297,8.3505859,13.894043h-6.7666016l-5.1835938-8.9990234-2.2314453,3.1679688v5.8310547h-6.1914062v-23.3969727Z"/>
  <path class="st0" d="M124.3779047,46.5563965l-7.0556641-15.3339844h6.6240234l1.7275391,4.8955078c.5761719,1.7636719,1.1513672,3.3833008,1.7636719,5.2192383h.1435547c.6123047-1.8359375,1.2246094-3.4555664,1.8359375-5.2192383l1.7275391-4.8955078h6.4794922l-7.0546875,15.3339844v8.0629883h-6.1914062v-8.0629883Z"/>
  <path class="st0" d="M43.3320063,81.6130371l-7.8808594-17.1279297h7.3984375l1.9296875,5.4677734c.6435547,1.9702148,1.2871094,3.7797852,1.9707031,5.8300781h.1601562c.6835938-2.050293,1.3671875-3.8598633,2.0507812-5.8300781l1.9296875-5.4677734h7.2373047l-7.8798828,17.1279297v9.0063477h-6.9160156v-9.0063477Z"/>
  <path class="st0" d="M60.0546625,77.9943848v-13.5092773h6.9150391v14.3134766c0,4.6640625,1.2060547,6.3525391,3.9404297,6.3525391s4.0205078-1.6884766,4.0205078-6.3525391v-14.3134766h6.6748047v13.5092773c0,8.9257812-3.3779297,13.1074219-10.6953125,13.1074219s-10.8554688-4.1816406-10.8554688-13.1074219Z"/>
  <path class="st0" d="M91.491186,64.4851074h8.3632812l7.9609375,26.1342773h-7.3173828l-1.2871094-5.5483398h-7.3173828l-1.2861328,5.5483398h-7.0771484l7.9609375-26.1342773ZM93.1396235,79.7233887h4.8251953l-.4423828-1.8095703c-.6435547-2.4926758-1.2861328-5.6689453-1.9296875-8.2822266h-.1611328c-.5625,2.6533203-1.2060547,5.7895508-1.8496094,8.2822266l-.4423828,1.8095703Z"/>
  <path class="st0" d="M110.303686,64.4851074h7.0771484l5.7890625,11.659668c.8847656,1.769043,1.6894531,3.8598633,2.4931641,5.8701172h.1611328c-.3222656-2.8144531-.8847656-6.7543945-.8847656-9.9711914v-7.5585938h6.59375v26.1342773h-7.0761719l-5.7900391-11.6601562c-.8847656-1.769043-1.6884766-3.8598633-2.4931641-5.8701172h-.1601562c.3212891,2.9755859.8847656,6.7548828.8847656,9.9711914v7.559082h-6.5947266v-26.1342773Z"/>
  <path class="st0" d="M35.834936,100.8479004h10.8378906v3.7158203h-6.3994141v2.6318359h5.4697266v3.715332h-5.4697266v2.9931641h6.6572266v3.7158203h-11.0957031v-16.7719727Z"/>
  <path class="st0" d="M50.1796625,100.8479004h4.5419922l3.7148438,7.4824219c.5683594,1.1362305,1.0839844,2.4780273,1.6005859,3.7680664h.1025391c-.2060547-1.8066406-.5673828-4.3354492-.5673828-6.3999023v-4.8505859h4.2314453v16.7719727h-4.5410156l-3.7158203-7.4824219c-.5673828-1.1357422-1.0839844-2.4780273-1.5996094-3.7680664h-.1035156c.2070312,1.9091797.5683594,4.3354492.5683594,6.3999023v4.8505859h-4.2324219v-16.7719727Z"/>
  <path class="st0" d="M66.7958735,109.3630371c0-5.6254883,3.8701172-8.8251953,8.359375-8.8251953,2.4775391,0,4.2832031.980957,5.4707031,2.2192383l-2.3222656,2.6835938c-.8261719-.7226562-1.6513672-1.0839844-2.9931641-1.0839844-2.2705078,0-3.9736328,1.8066406-3.9736328,4.8510742,0,3.1484375,1.3935547,4.9033203,4.3867188,4.9033203.4638672,0,.9804688-.1035156,1.2900391-.3095703v-2.3222656h-2.4775391v-3.612793h6.3994141v7.9985352c-1.1875,1.1357422-3.3027344,2.0644531-5.6767578,2.0644531-4.6962891,0-8.4628906-2.8378906-8.4628906-8.5664062Z"/>
  <path class="st0" d="M84.1835688,100.8479004h4.4384766v13.0561523h6.3476562v3.7158203h-10.7861328v-16.7719727Z"/>
  <path class="st0" d="M97.8583735,100.8479004h4.4384766v16.7719727h-4.4384766v-16.7719727Z"/>
  <path class="st0" d="M104.9784907,115.5036621l2.3222656-2.8896484c1.1875.9804688,2.7871094,1.4970703,4.1289062,1.4970703s1.9091797-.4394531,1.9091797-1.1875c0-.7998047-.8515625-1.0576172-2.2705078-1.625l-2.0898438-.8779297c-1.8066406-.7226562-3.3798828-2.2446289-3.3798828-4.6704102,0-2.8642578,2.5800781-5.2124023,6.2441406-5.2124023,2.0126953,0,4.0507812.7226562,5.5732422,2.1162109l-2.3222656,2.8901367c-1.1357422-.7744141-2.2705078-1.1875-3.2509766-1.1875-1.0839844,0-1.7548828.3867188-1.7548828,1.1357422,0,.7998047.9550781,1.0830078,2.4775391,1.6767578l2.0380859.7998047c2.0898438.8261719,3.2763672,2.2709961,3.2763672,4.5932617,0,2.8388672-2.3730469,5.3671875-6.5537109,5.3671875-2.21875,0-4.5410156-.7226562-6.3476562-2.4257812Z"/>
  <path class="st0" d="M120.5614985,100.8479004h4.4384766v6.2441406h5.0058594v-6.2441406h4.4375v16.7719727h-4.4375v-6.6572266h-5.0058594v6.6572266h-4.4384766v-16.7719727Z"/>
  <path class="st0" d="M34.8105219,134.939209c0-5.2324219,3.6005859-8.2089844,7.5371094-8.2089844,2.0644531,0,3.7441406.9121094,4.8486328,2.0644531l-2.1601562,2.4960938c-.7685547-.671875-1.5361328-1.0078125-2.5927734-1.0078125-1.8242188,0-3.4082031,1.6796875-3.4082031,4.5126953,0,2.9277344,1.3447266,4.5595703,3.3603516,4.5595703,1.2001953,0,2.1601562-.4794922,2.8320312-1.2001953l2.1601562,2.4482422c-1.3916016,1.5849609-3.1679688,2.3046875-5.1357422,2.3046875-3.984375,0-7.4414062-2.640625-7.4414062-7.96875Z"/>
  <path class="st0" d="M49.54685,127.0183105h4.1279297v5.8085938h4.65625v-5.8085938h4.1289062v15.6015625h-4.1289062v-6.1923828h-4.65625v6.1923828h-4.1279297v-15.6015625Z"/>
  <path class="st0" d="M68.6991938,127.0183105h4.9921875l4.7519531,15.6015625h-4.3681641l-.7675781-3.3125h-4.3691406l-.7675781,3.3125h-4.2246094l4.7529297-15.6015625ZM69.6825922,136.1149902h2.8808594l-.2646484-1.0800781c-.3837891-1.4882812-.7675781-3.3837891-1.1513672-4.9443359h-.0966797c-.3359375,1.5839844-.7197266,3.4560547-1.1035156,4.9443359l-.2646484,1.0800781Z"/>
  <path class="st0" d="M79.9316157,127.0183105h4.2236328l3.4570312,6.9609375c.5273438,1.0556641,1.0078125,2.3037109,1.4873047,3.5039062h.0966797c-.1923828-1.6796875-.5283203-4.0322266-.5283203-5.9521484v-4.5126953h3.9365234v15.6015625h-4.2246094l-3.4560547-6.9609375c-.5283203-1.0556641-1.0078125-2.3037109-1.4882812-3.5039062h-.0957031c.1914062,1.7763672.5273438,4.0322266.5273438,5.9521484v4.5126953h-3.9355469v-15.6015625Z"/>
  <path class="st0" d="M96.0585688,127.0183105h4.2236328l3.4570312,6.9609375c.5273438,1.0556641,1.0078125,2.3037109,1.4873047,3.5039062h.0966797c-.1923828-1.6796875-.5283203-4.0322266-.5283203-5.9521484v-4.5126953h3.9365234v15.6015625h-4.2246094l-3.4560547-6.9609375c-.5283203-1.0556641-1.0078125-2.3037109-1.4882812-3.5039062h-.0957031c.1914062,1.7763672.5273438,4.0322266.5273438,5.9521484v4.5126953h-3.9355469v-15.6015625Z"/>
  <path class="st0" d="M112.187475,127.0183105h10.0800781v3.4560547h-5.9521484v2.4482422h5.0888672v3.4570312h-5.0888672v2.7841797h6.1923828v3.4560547h-10.3203125v-15.6015625Z"/>
  <path class="st0" d="M125.531225,127.0183105h4.1279297v12.1455078h5.9042969v3.4560547h-10.0322266v-15.6015625Z"/>
  <path class="st0" d="M33.7734125,179.4050293c7.28125-6.1982422,13.0859375-11.7080078,13.0859375-15.8398438,0-2.8046875-1.5742188-4.1328125-3.8369141-4.1328125-2.0664062,0-3.640625,1.4755859-5.1162109,2.9511719l-4.3291016-4.328125c3.1484375-3.5429688,6.1005859-5.2148438,10.6259766-5.2148438,6.296875,0,10.7246094,4.0332031,10.7246094,10.1337891,0,5.5097656-5.0175781,10.4287109-9.7402344,14.9550781,1.5742188-.1962891,3.8369141-.3935547,5.2138672-.3935547h6.0019531v7.0839844h-22.6298828v-5.2148438Z"/>
  <path class="st0" d="M60.2431391,168.8776855c0-10.6748047,4.7226562-16.0371094,11.609375-16.0371094,6.8876953,0,11.6103516,5.4111328,11.6103516,16.0371094,0,10.6748047-4.7226562,16.3320312-11.6103516,16.3320312-6.8867188,0-11.609375-5.6572266-11.609375-16.3320312ZM75.4931391,168.8776855c0-8.2646484-1.6728516-9.5439453-3.640625-9.5439453s-3.6396484,1.2792969-3.6396484,9.5439453,1.671875,9.8388672,3.6396484,9.8388672,3.640625-1.5742188,3.640625-9.8388672Z"/>
  <path class="st0" d="M86.9101313,179.4050293c7.2802734-6.1982422,13.0849609-11.7080078,13.0849609-15.8398438,0-2.8046875-1.5742188-4.1328125-3.8369141-4.1328125-2.0664062,0-3.640625,1.4755859-5.1162109,2.9511719l-4.3291016-4.328125c3.1484375-3.5429688,6.0996094-5.2148438,10.6259766-5.2148438,6.296875,0,10.7246094,4.0332031,10.7246094,10.1337891,0,5.5097656-5.0185547,10.4287109-9.7412109,14.9550781,1.5742188-.1962891,3.8378906-.3935547,5.2148438-.3935547h6.0019531v7.0839844h-22.6289062v-5.2148438Z"/>
  <path class="st0" d="M113.5751704,169.5661621c0-11.3144531,6.1982422-16.7255859,12.8896484-16.7255859,4.4267578,0,7.6738281,1.8691406,9.7402344,3.9355469l-4.4277344,5.0175781c-.984375-1.0820312-2.9511719-2.1640625-4.7226562-2.1640625-3.0498047,0-5.4111328,2.1152344-5.7558594,8.4121094,1.5253906-2.0175781,4.1816406-3.0996094,5.8544922-3.0996094,5.3125,0,9.4453125,2.9511719,9.4453125,9.6425781,0,6.6894531-4.9199219,10.625-10.8232422,10.625-6.0019531,0-12.2001953-4.328125-12.2001953-15.6435547ZM121.4960688,173.501709c.6884766,4.3789062,2.5576172,5.4111328,4.0830078,5.4111328,1.7705078,0,3.3447266-1.0322266,3.3447266-4.328125,0-3.0009766-1.671875-3.7392578-3.4433594-3.7392578-1.4755859,0-3.0009766.7871094-3.984375,2.65625Z"/>
</svg>